PathFileType	4	(X/Y/Z)	Patient4_TMGait_0pt3_03_right_09.trc.trc
DataRate	CameraRate	NumFrames	NumMarkers	Units	OrigDataRate	OrigDataStartFrame	OrigNumFrames
52.830188679245	52.830188679245	6	33	mm	52.830188679245	71	       141
Frame#	Time	Sacral			L.Shoulder			Chest			R.Shoulder			Neck			R.ASIS			L.ASIS			R.Thigh.Superior			R.Thigh.Lateral			R.Thigh.Inferior			R.Patella			L.Thigh.Superior			L.Thigh.Lateral			L.Thigh.Inferior			L.Patella			L.Shank.Superior			L.Shank.Lateral			L.Shank.Inferior			R.Shank.Superior			R.Shank.Lateral			R.Shank.Inferior			R.Heel			R.Midfoot.Superior			R.Midfoot.Lateral			R.Toe			L.Heel			L.Midfoot.Lateral			L.Midfoot.Superior			L.Toe			L.Elbow			L.Wrist			R.Elbow			R.Wrist			
		X1	Y1	Z1	X2	Y2	Z2	X3	Y3	Z3	X4	Y4	Z4	X5	Y5	Z5	X6	Y6	Z6	X7	Y7	Z7	X8	Y8	Z8	X9	Y9	Z9	X10	Y10	Z10	X11	Y11	Z11	X12	Y12	Z12	X13	Y13	Z13	X14	Y14	Z14	X15	Y15	Z15	X16	Y16	Z16	X17	Y17	Z17	X18	Y18	Z18	X19	Y19	Z19	X20	Y20	Z20	X21	Y21	Z21	X22	Y22	Z22	X23	Y23	Z23	X24	Y24	Z24	X25	Y25	Z25	X26	Y26	Z26	X27	Y27	Z27	X28	Y28	Z28	X29	Y29	Z29	X30	Y30	Z30	X31	Y31	Z31	X32	Y32	Z32	X33	Y33	Z33	

71	18.375000000000	793.168422407209	1004.475914166003	569.980987421136	940.766207139559	1422.919065275625	349.436820912051	1076.964873054635	1351.491974596080	482.463427425970	1041.533653888448	1433.585133515725	667.526956136513	960.070416408794	1485.140149821934	504.179761783357	1035.589902088259	926.180646469282	640.800240568427	974.142702398347	954.040664258560	373.566954555249	1043.192223925051	718.531938309263	600.900089684811	958.784634044316	613.898097390355	668.799482208054	1013.389613970996	557.737716432052	575.542486618963	1001.787308484207	466.269711595019	579.878198813266	1047.491230849715	762.472030614349	396.442913472257	983.693863483032	637.640878908606	323.874554409376	1085.020298468306	573.450970367147	381.731192544829	1106.405136113957	509.258493218383	378.413991314253	1088.332686147149	438.781552113999	364.706040251054	1018.935685881383	312.795982818830	307.893097375795	1103.119907277863	208.927280350530	359.355803388237	954.205850049957	383.386368507794	590.059140230068	871.936531132076	292.381658156308	659.490251822128	884.487587201441	195.297416422588	590.431276362113	721.406970890214	44.473536672792	569.567987794572	895.485391319168	95.962137037442	598.235642476155	807.336156804483	37.099752772131	640.853561617348	1015.183257005218	41.179509674331	622.085331733847	1009.852352926892	37.523354076424	389.375451902671	1086.631288337335	38.061870142302	311.630943123764	1163.349672139479	107.766463580916	337.863088032139	1294.844146842027	67.167732183978	314.731490418441	771.289969783095	1108.761771945288	284.755897422371	723.458798616754	854.026062383250	326.670719682711	1218.784424131600	1154.063116950190	789.450953670888	1454.633963605201	1221.789124626855	722.785784398679	
72	18.393928571429	793.448211925790	1004.009421134346	566.726700888937	940.962296029891	1421.724142035029	345.011793295269	1077.397014476396	1350.660358531261	478.033490951192	1042.110813098764	1433.302012873103	662.864661791019	960.326716069586	1484.394800664451	499.561597629159	1036.114373437988	925.516957214078	637.715036154338	974.378552410733	953.079365118852	370.604568141047	1042.682899486824	717.506614594355	598.225409832607	957.578959863377	613.403240224040	666.454652737710	1011.579028271592	556.642495085535	573.452045139549	999.082689092762	465.111352867158	578.066341415504	1047.291700930479	760.777946332510	392.943808876921	981.248928188295	635.966794489012	322.055978752350	1082.969810636427	571.954221361890	378.940751666820	1103.072891673886	507.473789918686	376.505995860545	1085.502737207839	436.833257158466	362.994161523913	1015.800590285693	310.862962622773	307.097768848169	1099.658058455520	207.220386978387	359.125442281884	950.923324562651	382.672074528394	588.608906586794	868.029018396695	292.570512568500	658.609839069652	879.768302710371	195.122094472836	589.879097876626	715.793725051886	44.906690846146	569.613058407507	890.022124857308	96.053673979540	598.232036592611	801.726554984552	37.270691196722	640.842126392310	1009.520819310040	41.012785466410	622.083551976514	1005.297701014883	37.306507829942	389.839708911047	1081.884675047257	37.363907907347	311.821800000593	1159.363424104017	105.845631676850	338.386680256672	1290.389826910027	63.768435880249	314.871731673797	772.552498069612	1106.798971475708	282.761224425946	723.830710394122	852.296752636031	326.291860945989	1223.498021008305	1156.756203574296	783.419606982553	1456.319741362986	1232.161240518132	714.825311037441	
73	18.412857142857	793.814538922482	1003.512014908078	563.308506370313	941.237208933857	1420.557918418018	340.489866144188	1077.891036939323	1349.844322258438	473.519420908974	1042.713863550894	1432.947488023895	658.157998348703	960.645843809227	1483.659235112311	494.852630194575	1036.751320933196	924.866921895257	634.353935511612	974.657738075623	952.216960878587	367.392842069446	1042.444649934564	716.516628101531	595.283979836260	956.760282208465	612.890997469198	663.872226487633	1010.188764293049	555.560909689352	571.120360620887	996.874371684205	463.914866697152	576.053502981720	1047.633607966111	759.682150231693	389.483727166686	980.056930290384	634.720466944173	320.161363691048	1082.229671694769	571.085196366961	376.174758665384	1101.071806468263	506.008957757091	374.532673539727	1083.708030230831	435.062316060104	361.269344024991	1013.129888543024	309.450364393812	306.185108866430	1095.998921705721	205.597465924304	358.877763466835	948.007179330889	381.953880519087	586.997094408797	864.412364091661	292.880005236597	657.626255823465	875.227349423685	195.014615919981	589.269891319557	710.229344632664	45.554931604861	569.679213517759	884.613786674166	96.167533525304	598.201659671610	796.164387216148	37.552411446326	640.827947965513	1003.885598248107	40.785267904107	622.086910808167	999.725500915187	37.348499017575	390.330984534192	1076.036925691182	36.837481786897	311.963397324530	1154.438764337109	103.988394831993	338.808574821056	1284.907051113677	60.264479069427	314.735356327252	774.869240081664	1104.296008261516	280.207832417731	725.776254115114	849.903687896258	324.723260735484	1227.330977308411	1158.753705355828	777.532668949191	1457.426585714422	1240.606396479903	707.358525676443	
74	18.431785714286	794.284610728960	1003.068577422530	559.745049297542	941.560445363346	1419.534193287542	335.926523403439	1078.434144614274	1349.126668955143	468.940655751485	1043.370638481292	1432.588097179142	653.439548121577	961.020699620106	1483.009738115836	490.111638827615	1037.473190337767	924.299344274831	630.715150786573	974.979182061590	951.523009523376	363.911655202453	1042.322959374304	715.611269776340	592.118104967587	956.133427736078	612.456061502120	661.130315489090	1009.006480759715	554.559511544154	568.632997488582	994.940014371321	462.775582710827	573.939905369892	1048.473590576439	759.217767299976	386.151444957464	980.127032746948	633.938020299083	318.158024606378	1082.710541504161	570.793664735372	373.497411083621	1100.374781253587	504.889508868668	372.554538657196	1082.944602212429	433.527827343085	359.593293647514	1011.101396581369	308.544372352011	305.106456868646	1092.374067883916	204.119162649552	358.621118582517	945.290475789070	381.317191035879	585.310172658973	860.950222049338	293.349960576615	656.590128914266	870.800434175081	195.026909329865	588.646543275981	704.713860380139	46.438569247518	569.769808573420	879.264634370269	96.313006519898	598.158597627612	790.647728239851	37.961698986626	640.816083691304	998.276759458151	40.504092553251	622.097541387897	993.579521146089	37.546325403994	390.755708834925	1069.601900038386	36.459377151739	312.034350232168	1148.955299967378	102.316134117313	339.132485196439	1278.862750493696	56.983094931854	314.448208393845	778.005212441535	1101.509390055963	277.066120250720	729.192509257813	847.070582672717	321.919822799773	1230.354788447698	1160.125338531660	771.855099631885	1458.151499933440	1247.133481602003	700.415898669497	
75	18.450714285714	794.864251357593	1002.737121698346	556.027141771612	941.917342245961	1418.737718009951	331.362434901973	1079.012619010562	1348.569759109943	464.322529585064	1044.078648372635	1432.272373047558	648.740993269854	961.438951458567	1482.500751401645	485.387783488496	1038.250979976877	923.866586664307	626.825593166216	975.374357550010	951.027154595340	360.162718566383	1042.177307016630	714.828543003858	588.800165815753	955.503278593894	612.181792910369	658.315489227740	1007.836900468171	553.694882507162	566.093648671988	993.068150963421	461.776528485445	571.833600986597	1049.753217286341	759.331275254573	383.019102516792	981.358386472409	633.581101261068	316.036759671142	1084.232128540149	570.958069350910	370.973734169782	1100.856751634019	504.078362626144	370.642936865843	1083.109393996060	432.234360590809	358.027132660262	1009.768957538739	308.084550193306	303.869469401500	1088.917433728903	202.812001803356	358.378256288109	942.618223388269	380.834394362643	583.637231816901	857.509801692188	294.008261256512	655.549533739881	866.425450538679	195.199524366675	588.050842663633	699.246013167271	47.566331124696	569.884558872513	873.974054810791	96.495471604714	598.113418651464	785.172149456373	38.509177696651	640.810401810138	992.692484358068	40.179869269880	622.117666665999	987.204468943997	37.816756447364	391.063637196335	1062.971979363685	36.209538997109	312.035889251005	1143.206711967177	100.905495925673	339.378965357264	1272.610697451799	54.141910820049	314.112135162590	781.708974968753	1098.691582876292	273.310804355893	733.949556926925	844.026479475184	317.875864064404	1232.653401092741	1160.956677908918	766.422029782043	1458.685358007746	1251.781271407616	694.015507569120	
76	18.469642857143	795.545378234695	1002.547215345698	552.123327855725	942.311877359491	1418.216490855028	326.819028268637	1079.614084905482	1348.211671055541	459.695261365484	1044.804755880494	1432.029923130416	644.090731950431	961.884835379757	1482.162281645568	480.715458997816	1039.056082170084	923.600675136592	622.740001430973	975.898454210337	950.721401470675	356.174496609703	1041.901694175737	714.192051846260	585.425909360498	954.701284291682	612.130707103940	655.511781247454	1006.528646104428	553.007020382810	563.610968714208	991.085689897899	460.979679761811	569.835406479748	1051.396036541494	759.893410107438	380.127357084222	983.547115392526	633.551946705327	313.808082097773	1086.544242165772	571.414371793623	368.655061264947	1102.308920979680	503.495228802056	368.860906988420	1084.019280711733	431.144658368711	356.614582992449	1009.073373082039	307.974707311937	302.521266937858	1085.676548339270	201.671894172966	358.171362560246	939.865764316428	380.556443363687	582.057167481023	853.979278817729	294.869005112764	654.543362736703	862.050794475706	195.558034897183	587.517899774174	693.823913972210	48.935472097894	570.019450652039	868.737265326605	96.715669288354	598.071125240354	779.731720117217	39.198197042585	640.812669618037	987.130064946317	39.824887957749	622.148938661539	980.839005596790	38.099404736921	391.241353818001	1056.411669868680	36.067483167011	311.983771526739	1137.398580513960	99.785640994117	339.575500887069	1266.389902258471	51.840363454925	313.799075511605	785.738815100361	1096.062037843207	268.923879826953	739.889470844079	840.983225664407	312.622895548600	1234.311674466231	1161.339274655332	761.237480702114	1459.197163804499	1254.609353810707	688.164947203384	
